<mxfile host="app.diagrams.net" modified="2023-04-10T15:42:37.197Z" agent="Mozilla/5.0 (Macintosh; Intel Mac OS X 10_15_7) AppleWebKit/537.36 (KHTML, like Gecko) Chrome/110.0.0.0 Safari/537.36" etag="kW7BleK5bS8HIW2LP54T" version="21.1.5" type="github">
  <diagram id="C5RBs43oDa-KdzZeNtuy" name="Page-1">
    <mxGraphModel dx="1434" dy="796" grid="1" gridSize="10" guides="1" tooltips="1" connect="1" arrows="1" fold="1" page="1" pageScale="1" pageWidth="827" pageHeight="1169" math="0" shadow="0">
      <root>
        <mxCell id="WIyWlLk6GJQsqaUBKTNV-0" />
        <mxCell id="WIyWlLk6GJQsqaUBKTNV-1" parent="WIyWlLk6GJQsqaUBKTNV-0" />
        <mxCell id="5ETcrbsFOrZGn2XGe2iQ-9" style="edgeStyle=orthogonalEdgeStyle;rounded=0;orthogonalLoop=1;jettySize=auto;html=1;exitX=0.5;exitY=1;exitDx=0;exitDy=0;" edge="1" parent="WIyWlLk6GJQsqaUBKTNV-1">
          <mxGeometry relative="1" as="geometry">
            <mxPoint x="235" y="65" as="sourcePoint" />
            <mxPoint x="235" y="65" as="targetPoint" />
          </mxGeometry>
        </mxCell>
        <mxCell id="5ETcrbsFOrZGn2XGe2iQ-87" value="" style="edgeStyle=orthogonalEdgeStyle;rounded=0;orthogonalLoop=1;jettySize=auto;html=1;fontSize=8;fontStyle=1;strokeColor=#FF5000;fontColor=#FF5000;" edge="1" parent="WIyWlLk6GJQsqaUBKTNV-1" source="5ETcrbsFOrZGn2XGe2iQ-11" target="5ETcrbsFOrZGn2XGe2iQ-17">
          <mxGeometry relative="1" as="geometry" />
        </mxCell>
        <mxCell id="5ETcrbsFOrZGn2XGe2iQ-11" value="Web 실행" style="strokeWidth=2;html=1;shape=mxgraph.flowchart.terminator;whiteSpace=wrap;fontSize=8;fontStyle=1;strokeColor=#FF5000;fontColor=#FF5000;" vertex="1" parent="WIyWlLk6GJQsqaUBKTNV-1">
          <mxGeometry x="100" y="290" width="110" height="30" as="geometry" />
        </mxCell>
        <mxCell id="5ETcrbsFOrZGn2XGe2iQ-168" value="" style="edgeStyle=none;rounded=0;orthogonalLoop=1;jettySize=auto;html=1;fontFamily=Helvetica;fontSize=10;fontColor=#FF5000;strokeColor=#FF5000;" edge="1" parent="WIyWlLk6GJQsqaUBKTNV-1" source="5ETcrbsFOrZGn2XGe2iQ-17" target="5ETcrbsFOrZGn2XGe2iQ-61">
          <mxGeometry relative="1" as="geometry" />
        </mxCell>
        <mxCell id="5ETcrbsFOrZGn2XGe2iQ-17" value="메인 페이지&lt;br style=&quot;font-size: 8px;&quot;&gt;(검색창)" style="rounded=1;whiteSpace=wrap;html=1;absoluteArcSize=1;arcSize=14;strokeWidth=2;fontSize=8;fontStyle=1;strokeColor=#FF5000;fontColor=#FF5000;" vertex="1" parent="WIyWlLk6GJQsqaUBKTNV-1">
          <mxGeometry x="105" y="340" width="100" height="30" as="geometry" />
        </mxCell>
        <mxCell id="5ETcrbsFOrZGn2XGe2iQ-174" value="" style="edgeStyle=none;rounded=0;orthogonalLoop=1;jettySize=auto;html=1;fontFamily=Helvetica;fontSize=10;fontColor=#FF5000;strokeColor=#FF5000;" edge="1" parent="WIyWlLk6GJQsqaUBKTNV-1" source="5ETcrbsFOrZGn2XGe2iQ-32" target="5ETcrbsFOrZGn2XGe2iQ-92">
          <mxGeometry relative="1" as="geometry">
            <Array as="points">
              <mxPoint x="364" y="410" />
              <mxPoint x="415" y="410" />
            </Array>
          </mxGeometry>
        </mxCell>
        <mxCell id="5ETcrbsFOrZGn2XGe2iQ-32" value="이슈 / 인사이트&lt;br style=&quot;border-color: var(--border-color);&quot;&gt;공유 페이지" style="rounded=1;whiteSpace=wrap;html=1;absoluteArcSize=1;arcSize=14;strokeWidth=2;fontSize=8;fontStyle=1;strokeColor=#FF5000;fontColor=#FF5000;" vertex="1" parent="WIyWlLk6GJQsqaUBKTNV-1">
          <mxGeometry x="314" y="340" width="100" height="30" as="geometry" />
        </mxCell>
        <mxCell id="5ETcrbsFOrZGn2XGe2iQ-100" style="edgeStyle=orthogonalEdgeStyle;rounded=0;orthogonalLoop=1;jettySize=auto;html=1;exitX=0.5;exitY=1;exitDx=0;exitDy=0;entryX=0.5;entryY=0;entryDx=0;entryDy=0;entryPerimeter=0;fontSize=8;fontStyle=1;strokeColor=#FF5000;fontColor=#FF5000;" edge="1" parent="WIyWlLk6GJQsqaUBKTNV-1" source="5ETcrbsFOrZGn2XGe2iQ-33" target="5ETcrbsFOrZGn2XGe2iQ-92">
          <mxGeometry relative="1" as="geometry">
            <Array as="points">
              <mxPoint x="470" y="410" />
              <mxPoint x="415" y="410" />
            </Array>
          </mxGeometry>
        </mxCell>
        <mxCell id="5ETcrbsFOrZGn2XGe2iQ-33" value="마이 페이지" style="rounded=1;whiteSpace=wrap;html=1;absoluteArcSize=1;arcSize=14;strokeWidth=2;fontSize=8;fontStyle=1;strokeColor=#FF5000;fontColor=#FF5000;" vertex="1" parent="WIyWlLk6GJQsqaUBKTNV-1">
          <mxGeometry x="420" y="340" width="100" height="30" as="geometry" />
        </mxCell>
        <mxCell id="5ETcrbsFOrZGn2XGe2iQ-110" value="" style="edgeStyle=orthogonalEdgeStyle;rounded=0;orthogonalLoop=1;jettySize=auto;html=1;fontSize=8;fontStyle=1;strokeColor=#FF5000;fontColor=#FF5000;" edge="1" parent="WIyWlLk6GJQsqaUBKTNV-1" source="5ETcrbsFOrZGn2XGe2iQ-61" target="5ETcrbsFOrZGn2XGe2iQ-65">
          <mxGeometry relative="1" as="geometry" />
        </mxCell>
        <mxCell id="5ETcrbsFOrZGn2XGe2iQ-61" value="&lt;br style=&quot;font-size: 8px;&quot;&gt;Keyword 검색" style="html=1;strokeWidth=2;shape=manualInput;whiteSpace=wrap;rounded=1;size=26;arcSize=11;fontSize=8;fontStyle=1;strokeColor=#FF5000;fontColor=#FF5000;" vertex="1" parent="WIyWlLk6GJQsqaUBKTNV-1">
          <mxGeometry x="107.5" y="392.5" width="95" height="47.5" as="geometry" />
        </mxCell>
        <mxCell id="5ETcrbsFOrZGn2XGe2iQ-111" value="" style="edgeStyle=orthogonalEdgeStyle;rounded=0;orthogonalLoop=1;jettySize=auto;html=1;fontSize=8;fontStyle=1;strokeColor=#FF5000;fontColor=#FF5000;" edge="1" parent="WIyWlLk6GJQsqaUBKTNV-1" source="5ETcrbsFOrZGn2XGe2iQ-65" target="5ETcrbsFOrZGn2XGe2iQ-66">
          <mxGeometry relative="1" as="geometry" />
        </mxCell>
        <mxCell id="5ETcrbsFOrZGn2XGe2iQ-65" value="검색 리스트" style="rounded=1;whiteSpace=wrap;html=1;absoluteArcSize=1;arcSize=14;strokeWidth=2;fontSize=8;fontStyle=1;strokeColor=#FF5000;fontColor=#FF5000;" vertex="1" parent="WIyWlLk6GJQsqaUBKTNV-1">
          <mxGeometry x="105" y="460" width="100" height="30" as="geometry" />
        </mxCell>
        <mxCell id="5ETcrbsFOrZGn2XGe2iQ-112" value="" style="edgeStyle=orthogonalEdgeStyle;rounded=0;orthogonalLoop=1;jettySize=auto;html=1;fontSize=8;fontStyle=1;strokeColor=#FF5000;fontColor=#FF5000;" edge="1" parent="WIyWlLk6GJQsqaUBKTNV-1" source="5ETcrbsFOrZGn2XGe2iQ-66" target="5ETcrbsFOrZGn2XGe2iQ-67">
          <mxGeometry relative="1" as="geometry" />
        </mxCell>
        <mxCell id="5ETcrbsFOrZGn2XGe2iQ-66" value="상세 페이지" style="rounded=1;whiteSpace=wrap;html=1;absoluteArcSize=1;arcSize=14;strokeWidth=2;fontSize=8;fontStyle=1;strokeColor=#FF5000;fontColor=#FF5000;" vertex="1" parent="WIyWlLk6GJQsqaUBKTNV-1">
          <mxGeometry x="105" y="520" width="100" height="30" as="geometry" />
        </mxCell>
        <mxCell id="5ETcrbsFOrZGn2XGe2iQ-128" value="" style="edgeStyle=orthogonalEdgeStyle;rounded=0;orthogonalLoop=1;jettySize=auto;html=1;fontSize=8;fontStyle=1;strokeColor=#FF5000;fontColor=#FF5000;" edge="1" parent="WIyWlLk6GJQsqaUBKTNV-1" source="5ETcrbsFOrZGn2XGe2iQ-67" target="5ETcrbsFOrZGn2XGe2iQ-125">
          <mxGeometry relative="1" as="geometry" />
        </mxCell>
        <mxCell id="5ETcrbsFOrZGn2XGe2iQ-67" value="다운로드 페이지" style="rounded=1;whiteSpace=wrap;html=1;absoluteArcSize=1;arcSize=14;strokeWidth=2;fontSize=8;fontStyle=1;strokeColor=#FF5000;fontColor=#FF5000;" vertex="1" parent="WIyWlLk6GJQsqaUBKTNV-1">
          <mxGeometry x="105" y="580" width="100" height="30" as="geometry" />
        </mxCell>
        <mxCell id="5ETcrbsFOrZGn2XGe2iQ-91" style="edgeStyle=orthogonalEdgeStyle;rounded=0;orthogonalLoop=1;jettySize=auto;html=1;exitX=1;exitY=0.5;exitDx=0;exitDy=0;exitPerimeter=0;entryX=0.5;entryY=1;entryDx=0;entryDy=0;fontSize=8;fontStyle=1;strokeColor=#FF5000;fontColor=#FF5000;" edge="1" parent="WIyWlLk6GJQsqaUBKTNV-1" source="5ETcrbsFOrZGn2XGe2iQ-102" target="5ETcrbsFOrZGn2XGe2iQ-77">
          <mxGeometry relative="1" as="geometry">
            <mxPoint x="520" y="680" as="targetPoint" />
            <mxPoint x="210" y="830" as="sourcePoint" />
            <Array as="points">
              <mxPoint x="470" y="658" />
            </Array>
          </mxGeometry>
        </mxCell>
        <mxCell id="5ETcrbsFOrZGn2XGe2iQ-154" value="Y" style="edgeLabel;html=1;align=center;verticalAlign=middle;resizable=0;points=[];fontSize=8;fontStyle=1;fontColor=#FF5000;" vertex="1" connectable="0" parent="5ETcrbsFOrZGn2XGe2iQ-91">
          <mxGeometry x="0.0054" relative="1" as="geometry">
            <mxPoint as="offset" />
          </mxGeometry>
        </mxCell>
        <mxCell id="5ETcrbsFOrZGn2XGe2iQ-75" value="데이터 제공처&lt;br style=&quot;font-size: 8px;&quot;&gt;소개 페이지" style="rounded=1;whiteSpace=wrap;html=1;absoluteArcSize=1;arcSize=14;strokeWidth=2;fontSize=8;fontStyle=1;strokeColor=#FF5000;fontColor=#FF5000;" vertex="1" parent="WIyWlLk6GJQsqaUBKTNV-1">
          <mxGeometry x="210" y="392.5" width="100" height="27.5" as="geometry" />
        </mxCell>
        <mxCell id="5ETcrbsFOrZGn2XGe2iQ-77" value="활동 기록" style="rounded=1;whiteSpace=wrap;html=1;absoluteArcSize=1;arcSize=14;strokeWidth=2;fontSize=8;fontStyle=1;strokeColor=#FF5000;fontColor=#FF5000;" vertex="1" parent="WIyWlLk6GJQsqaUBKTNV-1">
          <mxGeometry x="365" y="570" width="100" height="30" as="geometry" />
        </mxCell>
        <mxCell id="5ETcrbsFOrZGn2XGe2iQ-116" value="" style="edgeStyle=orthogonalEdgeStyle;rounded=0;orthogonalLoop=1;jettySize=auto;html=1;fontSize=8;fontStyle=1;strokeColor=#FF5000;fontColor=#FF5000;" edge="1" parent="WIyWlLk6GJQsqaUBKTNV-1" source="5ETcrbsFOrZGn2XGe2iQ-19" target="5ETcrbsFOrZGn2XGe2iQ-75">
          <mxGeometry relative="1" as="geometry" />
        </mxCell>
        <mxCell id="5ETcrbsFOrZGn2XGe2iQ-19" value="서비스 소개&lt;br style=&quot;font-size: 8px;&quot;&gt;페이지" style="rounded=1;whiteSpace=wrap;html=1;absoluteArcSize=1;arcSize=14;strokeWidth=2;fontSize=8;fontStyle=1;strokeColor=#FF5000;fontColor=#FF5000;" vertex="1" parent="WIyWlLk6GJQsqaUBKTNV-1">
          <mxGeometry x="210" y="340" width="100" height="30" as="geometry" />
        </mxCell>
        <mxCell id="5ETcrbsFOrZGn2XGe2iQ-101" style="edgeStyle=orthogonalEdgeStyle;rounded=0;orthogonalLoop=1;jettySize=auto;html=1;exitX=0.5;exitY=1;exitDx=0;exitDy=0;exitPerimeter=0;entryX=0.5;entryY=0;entryDx=0;entryDy=0;fontSize=8;fontStyle=1;strokeColor=#FF5000;fontColor=#FF5000;" edge="1" parent="WIyWlLk6GJQsqaUBKTNV-1" source="5ETcrbsFOrZGn2XGe2iQ-92" target="5ETcrbsFOrZGn2XGe2iQ-77">
          <mxGeometry relative="1" as="geometry">
            <Array as="points">
              <mxPoint x="414" y="530" />
              <mxPoint x="470" y="530" />
            </Array>
          </mxGeometry>
        </mxCell>
        <mxCell id="5ETcrbsFOrZGn2XGe2iQ-153" value="Y" style="edgeLabel;html=1;align=center;verticalAlign=middle;resizable=0;points=[];fontSize=8;fontStyle=1;fontColor=#FF5000;" vertex="1" connectable="0" parent="5ETcrbsFOrZGn2XGe2iQ-101">
          <mxGeometry x="-0.7789" y="-1" relative="1" as="geometry">
            <mxPoint as="offset" />
          </mxGeometry>
        </mxCell>
        <mxCell id="5ETcrbsFOrZGn2XGe2iQ-136" value="" style="edgeStyle=none;rounded=0;orthogonalLoop=1;jettySize=auto;html=1;fontSize=8;fontStyle=1;fontColor=#FF5000;strokeColor=#FF5000;" edge="1" parent="WIyWlLk6GJQsqaUBKTNV-1" source="5ETcrbsFOrZGn2XGe2iQ-92" target="5ETcrbsFOrZGn2XGe2iQ-93">
          <mxGeometry relative="1" as="geometry" />
        </mxCell>
        <mxCell id="5ETcrbsFOrZGn2XGe2iQ-141" value="N" style="edgeLabel;html=1;align=center;verticalAlign=middle;resizable=0;points=[];fontSize=8;fontStyle=1;fontColor=#FF5000;" vertex="1" connectable="0" parent="5ETcrbsFOrZGn2XGe2iQ-136">
          <mxGeometry x="0.0002" relative="1" as="geometry">
            <mxPoint as="offset" />
          </mxGeometry>
        </mxCell>
        <mxCell id="5ETcrbsFOrZGn2XGe2iQ-92" value="로그인&lt;br style=&quot;border-color: var(--border-color); font-size: 8px;&quot;&gt;여부" style="strokeWidth=2;html=1;shape=mxgraph.flowchart.decision;whiteSpace=wrap;fontSize=8;fontStyle=1;strokeColor=#FF5000;fontColor=#FF5000;" vertex="1" parent="WIyWlLk6GJQsqaUBKTNV-1">
          <mxGeometry x="360" y="436.87" width="110" height="38.75" as="geometry" />
        </mxCell>
        <mxCell id="5ETcrbsFOrZGn2XGe2iQ-93" value="로그인" style="strokeWidth=2;html=1;shape=mxgraph.flowchart.decision;whiteSpace=wrap;fontSize=8;fontStyle=1;strokeColor=#FF5000;fontColor=#FF5000;" vertex="1" parent="WIyWlLk6GJQsqaUBKTNV-1">
          <mxGeometry x="540" y="436.87" width="100" height="38.75" as="geometry" />
        </mxCell>
        <mxCell id="5ETcrbsFOrZGn2XGe2iQ-125" value="데이터 다운로드" style="strokeWidth=2;html=1;shape=mxgraph.flowchart.decision;whiteSpace=wrap;fontSize=8;fontStyle=1;strokeColor=#FF5000;fontColor=#FF5000;" vertex="1" parent="WIyWlLk6GJQsqaUBKTNV-1">
          <mxGeometry x="102.5" y="640" width="105" height="40" as="geometry" />
        </mxCell>
        <mxCell id="5ETcrbsFOrZGn2XGe2iQ-143" value="" style="edgeStyle=none;rounded=0;orthogonalLoop=1;jettySize=auto;html=1;entryX=0.5;entryY=1;entryDx=0;entryDy=0;entryPerimeter=0;exitX=1;exitY=0.5;exitDx=0;exitDy=0;exitPerimeter=0;fontSize=8;fontStyle=1;strokeColor=#FF5000;fontColor=#FF5000;" edge="1" parent="WIyWlLk6GJQsqaUBKTNV-1" source="5ETcrbsFOrZGn2XGe2iQ-102" target="5ETcrbsFOrZGn2XGe2iQ-93">
          <mxGeometry relative="1" as="geometry">
            <mxPoint x="660" y="720" as="sourcePoint" />
            <mxPoint x="660" y="630" as="targetPoint" />
            <Array as="points">
              <mxPoint x="590" y="658" />
            </Array>
          </mxGeometry>
        </mxCell>
        <mxCell id="5ETcrbsFOrZGn2XGe2iQ-155" value="N" style="edgeLabel;html=1;align=center;verticalAlign=middle;resizable=0;points=[];fontSize=8;fontStyle=1;fontColor=#FF5000;" vertex="1" connectable="0" parent="5ETcrbsFOrZGn2XGe2iQ-143">
          <mxGeometry x="-0.6176" relative="1" as="geometry">
            <mxPoint as="offset" />
          </mxGeometry>
        </mxCell>
        <mxCell id="5ETcrbsFOrZGn2XGe2iQ-144" value="" style="edgeStyle=orthogonalEdgeStyle;rounded=0;orthogonalLoop=1;jettySize=auto;html=1;exitX=1;exitY=0.5;exitDx=0;exitDy=0;exitPerimeter=0;entryX=0;entryY=0.5;entryDx=0;entryDy=0;entryPerimeter=0;fontSize=8;fontStyle=1;strokeColor=#FF5000;fontColor=#FF5000;" edge="1" parent="WIyWlLk6GJQsqaUBKTNV-1" source="5ETcrbsFOrZGn2XGe2iQ-125" target="5ETcrbsFOrZGn2XGe2iQ-102">
          <mxGeometry relative="1" as="geometry">
            <mxPoint x="520" y="575" as="targetPoint" />
            <mxPoint x="208" y="745" as="sourcePoint" />
            <Array as="points">
              <mxPoint x="350" y="660" />
            </Array>
          </mxGeometry>
        </mxCell>
        <mxCell id="5ETcrbsFOrZGn2XGe2iQ-102" value="로그인 여부" style="strokeWidth=2;html=1;shape=mxgraph.flowchart.decision;whiteSpace=wrap;fontSize=8;fontStyle=1;strokeColor=#FF5000;fontColor=#FF5000;" vertex="1" parent="WIyWlLk6GJQsqaUBKTNV-1">
          <mxGeometry x="370" y="637.5" width="100" height="45" as="geometry" />
        </mxCell>
        <mxCell id="5ETcrbsFOrZGn2XGe2iQ-152" style="edgeStyle=none;rounded=0;orthogonalLoop=1;jettySize=auto;html=1;exitX=0.5;exitY=0;exitDx=0;exitDy=0;exitPerimeter=0;entryX=0.5;entryY=1;entryDx=0;entryDy=0;entryPerimeter=0;fontSize=8;fontStyle=1;strokeColor=#FF5000;fontColor=#FF5000;" edge="1" parent="WIyWlLk6GJQsqaUBKTNV-1" target="5ETcrbsFOrZGn2XGe2iQ-93">
          <mxGeometry relative="1" as="geometry">
            <mxPoint x="590" y="560" as="sourcePoint" />
            <Array as="points">
              <mxPoint x="590" y="540" />
            </Array>
          </mxGeometry>
        </mxCell>
        <mxCell id="5ETcrbsFOrZGn2XGe2iQ-157" value="N" style="edgeLabel;html=1;align=center;verticalAlign=middle;resizable=0;points=[];fontSize=8;fontStyle=1;fontColor=#FF5000;" vertex="1" connectable="0" parent="5ETcrbsFOrZGn2XGe2iQ-152">
          <mxGeometry x="-0.9077" relative="1" as="geometry">
            <mxPoint as="offset" />
          </mxGeometry>
        </mxCell>
        <mxCell id="5ETcrbsFOrZGn2XGe2iQ-161" value="" style="endArrow=none;html=1;rounded=0;fontFamily=Helvetica;fontSize=10;fontColor=#FF5000;exitX=1;exitY=0.5;exitDx=0;exitDy=0;entryX=0;entryY=0.5;entryDx=0;entryDy=0;strokeColor=#FF5000;" edge="1" parent="WIyWlLk6GJQsqaUBKTNV-1" source="5ETcrbsFOrZGn2XGe2iQ-32" target="5ETcrbsFOrZGn2XGe2iQ-33">
          <mxGeometry width="50" height="50" relative="1" as="geometry">
            <mxPoint x="390" y="660" as="sourcePoint" />
            <mxPoint x="440" y="610" as="targetPoint" />
          </mxGeometry>
        </mxCell>
        <mxCell id="5ETcrbsFOrZGn2XGe2iQ-162" value="" style="endArrow=none;html=1;rounded=0;fontFamily=Helvetica;fontSize=10;fontColor=#FF5000;exitX=1;exitY=0.5;exitDx=0;exitDy=0;entryX=0;entryY=0.5;entryDx=0;entryDy=0;strokeColor=#FF5000;" edge="1" parent="WIyWlLk6GJQsqaUBKTNV-1" source="5ETcrbsFOrZGn2XGe2iQ-17" target="5ETcrbsFOrZGn2XGe2iQ-19">
          <mxGeometry width="50" height="50" relative="1" as="geometry">
            <mxPoint x="390" y="660" as="sourcePoint" />
            <mxPoint x="440" y="610" as="targetPoint" />
          </mxGeometry>
        </mxCell>
        <mxCell id="5ETcrbsFOrZGn2XGe2iQ-164" value="" style="endArrow=none;html=1;rounded=0;fontFamily=Helvetica;fontSize=10;fontColor=#FF5000;exitX=1;exitY=0.5;exitDx=0;exitDy=0;entryX=0;entryY=0.5;entryDx=0;entryDy=0;strokeColor=#FF5000;" edge="1" parent="WIyWlLk6GJQsqaUBKTNV-1" source="5ETcrbsFOrZGn2XGe2iQ-19" target="5ETcrbsFOrZGn2XGe2iQ-32">
          <mxGeometry width="50" height="50" relative="1" as="geometry">
            <mxPoint x="390" y="660" as="sourcePoint" />
            <mxPoint x="440" y="610" as="targetPoint" />
          </mxGeometry>
        </mxCell>
        <mxCell id="5ETcrbsFOrZGn2XGe2iQ-167" style="edgeStyle=none;rounded=0;orthogonalLoop=1;jettySize=auto;html=1;exitX=0.5;exitY=1;exitDx=0;exitDy=0;exitPerimeter=0;fontFamily=Helvetica;fontSize=10;fontColor=#FF5000;" edge="1" parent="WIyWlLk6GJQsqaUBKTNV-1" source="5ETcrbsFOrZGn2XGe2iQ-92" target="5ETcrbsFOrZGn2XGe2iQ-92">
          <mxGeometry relative="1" as="geometry" />
        </mxCell>
      </root>
    </mxGraphModel>
  </diagram>
</mxfile>
